<?xml version="1.0" encoding="utf-8"?>
<!-- Generator: Adobe Illustrator 27.3.1, SVG Export Plug-In . SVG Version: 6.00 Build 0)  -->
<svg version="1.1" id="Layer_1" xmlns="http://www.w3.org/2000/svg" xmlns:xlink="http://www.w3.org/1999/xlink" x="0px" y="0px"
	 viewBox="0 0 100 100" style="enable-background:new 0 0 100 100;" xml:space="preserve">
<g>
	<circle style="fill:#DBD1C7;" cx="50" cy="50" r="48"/>
	<g>
		<g>
			<g>
				<path style="fill:#3B465A;" d="M72.7,67.4c-0.9,1.3-2,2.1-3.5,2.6c-1.8,0.6-3.6,0.5-5.4-0.1c-0.8-0.3-1.3-0.1-1.6,0.5
					c-0.2,0.3-0.2,0.8-0.1,1.2c0,0.1,0,0.1,0.1,0.2c0.2,0,0.3,0.1,0.5,0.1c1.8,0.6,3.6,0.6,5.4,0.1c1.8-0.6,3.1-1.8,4.1-3.6
					C72.5,68.1,72.6,67.7,72.7,67.4z"/>
				<path style="fill:#3B465A;" d="M28.4,33.7c0.4-1.2,1.2-2.2,2.2-2.9c1.3-0.9,2.8-1.3,4.5-1.2c0.7,0,1.1-0.2,1.2-0.8
					c0.1-0.3,0-0.7-0.2-1c0-0.1-0.1-0.1-0.1-0.2c-0.1,0-0.3,0-0.5,0c-1.6-0.1-3.1,0.3-4.5,1.2c-1.3,0.9-2.2,2.2-2.5,3.9
					C28.4,33.1,28.4,33.4,28.4,33.7z"/>
				<path style="fill:#3B465A;" d="M75.9,59.8c-0.1-0.2-0.3-0.5-0.4-0.7l0,0c-0.5-0.8-1.2-1.6-1.9-2.3c-1.1-1.1-2.4-2-4-2.8
					c-1.8-0.9-4.8-1.6-9-2.2c0.1-0.9,0.2-1.9,0.1-2.8c-0.2-5.5-2.7-11.1-7.6-14c-4.2-2.6-9-2.6-13.4-0.6c-4.8,2-7.7,6.6-8.8,11.5
					c-1.9-1.5-3.4-3.2-4.3-5.3c-0.8-1.7-1.2-3.5-1.2-5.2c0-0.9,0.1-1.9,0.4-2.8c0.1-0.5,0.3-1,0.5-1.5c-0.2,0.4-0.4,0.8-0.6,1.2
					c-0.1,0.1-0.1,0.2-0.2,0.3c-0.4,0.9-0.7,1.8-0.9,2.7c-0.5,2.5-0.2,4.9,0.9,7.4c1.1,2.3,2.7,4.3,5,5.8c0,0.3-0.1,0.7-0.1,1
					c-0.1,1.6,0,3.1,0.3,4.6c0,0,0.3,0,0.3,0c0-1.5,0.1-3,0.4-4.5c0-0.2,0.1-0.4,0.1-0.5c0.4,0.2,0.8,0.5,1.2,0.7
					c2.4,1.2,6.2,2.1,11.4,2.8c1.5,0.2,3.1,0.3,4.8,0.5c0.7,0.1,1.4,0.1,2.1,0.1c2.6,0.2,4.9,0.4,7,0.6c0,0,0,0.1,0,0.1
					c-0.1,0.8-0.3,1.5-0.6,2.2c-0.3,0.8-0.6,1.6-0.9,2.3c-1.3,2.8-3.3,5.4-5.6,7.5c-2.3,2.1-5.1,3.8-8,5.2l0.1,0.2
					c4.7-1.4,9.3-4,12.4-7.9c1.2-1.3,2.1-2.8,3-4.3c0.4-0.8,0.7-1.5,1-2.3c0.3-0.9,0.6-1.8,0.8-2.8c3.8,0.6,6.6,1.3,8.3,2.1
					c1.3,0.7,2.5,1.4,3.5,2.3c0.8,0.7,1.5,1.4,2.1,2.2c0.1-0.1,0.2-0.2,0.4-0.4c-0.1,0.1-0.2,0.2-0.4,0.4c0.3,0.4,0.5,0.8,0.8,1.2
					c1.2,2.1,1.3,4.4,0.3,6.8c0.2-0.3,0.4-0.7,0.6-1C77.2,64.8,77.3,62.2,75.9,59.8z M52,51c-1.9-0.1-3.7-0.3-5.3-0.4
					c-1.7-0.2-3.3-0.4-4.8-0.6c-3.6-0.6-6.3-1.4-8.2-2.3c-0.6-0.3-1.2-0.6-1.7-1c0.7-2.2,1.7-4.2,3-6c1.9-2.6,4.7-4.2,7.8-4.9
					c3.1-0.8,6.3-0.2,9,1.4c4.8,3,6.8,8.9,6.4,14.4C56.4,51.3,54.3,51.1,52,51z"/>
			</g>
		</g>
	</g>
</g>
</svg>
